<svg width="32" height="32" viewBox="0 0 32 32" fill="none" xmlns="http://www.w3.org/2000/svg">
<path fill-rule="evenodd" clip-rule="evenodd" d="M2 0C3.3 0 4.1 0.7 4.1 1.9C4.2 3 4.8 4.5 5.5 5.2C6.5 6.2 6.5 6.7 5.1 7.6C4 8.4 3.6 9.8 3.9 12.1C4.1 14.6 4.4 15.1 5 14C5.7 12.8 6.1 13.1 6.9 15.3C7.5 16.8 8 18.4 8 19C8 19.6 8.4 20 9 20C9.6 20 10.4 18.4 11 16.5C11.7 14.1 12.5 13.2 13.5 13.5C14.5 13.8 14.7 14.4 14 15.3C13.4 16.1 13.5 17.4 14.3 19.2C14.9 20.8 15.8 22 16.2 22C16.7 22 17 21.1 17 20C17 18.9 17.4 17.8 18 17.5C18.6 17.2 18.7 16.5 18.1 15.8C17.5 15 17.5 13.9 18 13C18.7 11.9 19.3 12.6 20.6 16C22.2 20.3 22.4 20.4 23.7 18.5C24.4 17.4 25 15.7 25 14.7C25 13.8 25.4 13 26 13C26.6 13 27 14.9 27 17.3C27 19.6 26.8 21.8 26.5 22.3C26.2 22.7 24.8 22.3 23.2 21.5C21.1 20.4 20.3 20.4 19.8 21.3C19.4 22 19 23.3 19 24.3C19 25.2 18.2 26.4 17.2 27C16 27.7 15.1 27.5 13.8 26.2C12.9 25.3 12 23.5 11.8 22.3C11.5 20.1 11.4 20.1 8.7 21.5C6.6 22.7 5.9 22.7 5.6 21.8C5.3 21.1 4.9 19.6 4.7 18.5C4.36667 17.1667 4.16667 17.5 4.1 19.5C4 22.2 4.6 22.8 16 29L28 22.5V15.2C28 9.7 27.7 7.9 26.5 7.5C25.2 7.1 25.2 6.8 26.5 5.5C27.3 4.7 28 3.1 28 2C28 0.666667 28.6667 0 30 0C31.9 0 32 0.700001 32 32H0V16C0 0.7 0.1 0 2 0ZM15.8 4C15.9 4 18.2 5.3 21 7C23.7 8.7 26 10.4 26 11C26 11.6 23.9 10.6 21.2 9C18.6 7.3 16.2 6 15.7 6C15.3 6 13.2 7.2 11 8.8C8.8 10.3 6.8 11.2 6.5 10.8C6.2 10.3 8.1 8.7 10.7 7C13.4 5.4 15.6 4 15.7 4H15.8ZM19.6 10C19.9 10 20.1 10.2 20.1 10.5C20.1 10.8 19.9 11 19.6 11C19.3 11 19.1 10.8 19.1 10.5C19.1 10.2 19.3 10 19.6 10Z" fill="#152D41"/>
<path fill-rule="evenodd" clip-rule="evenodd" d="M16 0C27.3 0 28 0.1 28 2C28 3.1 27.3 4.7 26.4 5.5C25.6 6.3 24.4 7 23.9 7C23.4 7 23.3 7.6 23.7 8.3C24.2333 9.1 24.0667 9.23333 23.2 8.7C22.6 8.3 22.2 7.6 22.5 7C22.8 6.5 21.4 5.1 16 2L12.5 4C10.6 5.1 9.2 6.5 9.5 7C9.8 7.6 9 7.5 7.7 6.9C6.5 6.2 5.2 5.2 4.8 4.6C4.4 4 4 2.7 4 1.7C4 0.2 5.2 0 16 0V0ZM14.5 4C14.8 4 15 4.2 15 4.5C15 4.8 14.8 5 14.5 5C14.2 5 14 4.8 14 4.5C14 4.2 14.2 4 14.5 4ZM18.5 5C18.8 5 19 5.2 19 5.5C19 5.8 18.8 6 18.5 6C18.2 6 18 5.8 18 5.5C18 5.2 18.2 5 18.5 5ZM11.5 6C11.8 6 12 6.2 12 6.5C12 6.8 11.8 7 11.5 7C11.2 7 11 6.8 11 6.5C11 6.2 11.2 6 11.5 6ZM15.5 6C16.3 6 17 6.2 17 6.5C17 6.8 16 7.2 14.8 7.4C13.7 7.6 13 7.4 13.4 6.9C13.8 6.4 14.8 6 15.5 6ZM20.5 6C20.8 6 21 6.2 21 6.5C21 6.8 20.8 7 20.5 7C20.2 7 20 6.8 20 6.5C20 6.2 20.2 6 20.5 6ZM5.9 7C6.2 7 6.8 7.3 7.2 7.7C7.7 8.1 7.6 8.9 7.1 9.5C6.6 10.1 6.2 10.7 6.1 11C6.1 11.3 5.8 12.4 5.3 13.5C4.6 15.3 4.5 15.2 4 12.5C3.6 10.8 3.8 8.9 4.3 8.2C4.8 7.6 5.5 7 5.9 7V7ZM20.1 8C21.2 8.6 22.1 9.5 22.1 10C22 10.6 21.6 11 21 11C20.4 11 19.6 10.1 19 8.9C18.1 7 18.2 7 20.1 8ZM26.5 7.7C27.5 8.1 27.9 10.1 28 22.5L16 29L10 25.7C4.6 22.8 4 22.2 4.1 19.5C4.16667 17.5 4.36667 17.1667 4.7 18.5C4.9 19.6 5.3 21.1 5.6 21.7C5.9 22.7 6.6 22.7 8.8 21.5C11.4 20.1 11.5 20.1 11.8 22.3C12 23.5 12.9 25.3 13.8 26.2C15.1 27.5 16 27.7 17.3 27C18.2 26.4 19 25.2 19 24.2C19 23.3 19.4 22 19.8 21.3C20.3 20.4 21.1 20.4 23.3 21.5C25.7 22.9 26.1 22.8 26.6 21.2C27 20.3 27 17.7 26.7 15.5C26.4 13.3 25.9 10.5 25.6 9.3C25.2 7.7 25.4 7.3 26.5 7.7V7.7ZM13.7 10.2C15.6 12.6 16.2 12.8 17 11.5C17.6 10.7 18.5 10.2 19 10.5C19.6 10.8 20 11.4 20 12C20 12.5 19.6 12.8 19 12.5C18.5 12.2 17.8 12.7 17.5 13.5C17.2 14.3 17.6 15.3 18.3 15.6C19.2 16.1 19.2 16.4 18.2 17.4C17.5 18 17 19.3 17 20.2C17 21.2 16.6 22 16 22C15.5 22 15 21.7 15 21.2C15 20.8 15.7 19.5 16.5 18.2C17.4 16.9 17.6 15.8 17 15.5C16.5 15.2 15.4 15.3 14.8 15.7C14.1 16 13.8 16 14.3 15.7C14.7 15.3 13.8 14 12.3 12.7C10.5 11.2 9.9 10 10.5 9C11.2 7.8 11.7 8 13.7 10.2ZM8.5 10C8.8 10 9 10.2 9 10.5C9 10.8 8.8 11 8.5 11C8.2 11 8 10.8 8 10.5C8 10.2 8.2 10 8.5 10ZM23.4 10C23.7 10 24.2 10.4 24.5 11C24.8 11.5 24.8 12 24.5 12C24.2 12 23.7 11.5 23.4 11C23.1 10.4 23.1 10 23.4 10ZM6.8 13.4C7.2 13.6 8.1 15.1 8.8 16.9C9.4 18.6 9.7 20 9.3 20C8.8 20 7.9 18.5 7.3 16.5C6.6 14.6 6.3 13.2 6.8 13.4ZM11 14C11.6 14 11.8 14.9 11.5 16C11.2 17.1 10.8 18 10.5 18C10.2 18 10 17.1 10 16C10 14.9 10.5 14 11 14ZM21 14C21.6 14 22 15 22 16.2C22 18.1 21.8 18.2 21 17C20.5 16.2 20 15.2 20 14.7C20 14.3 20.5 14 21 14ZM24.5 14C24.8 14 25 14.6 25 15.2C25 15.9 24.4 17.4 23.5 18.5C22.3 20.1 22.1 20.2 22.5 18.7C22.8 17.8 23.2 16.3 23.5 15.5C23.7 14.7 24.2 14 24.5 14ZM13.4 17C13.7 17 14.2 17.4 14.5 18C14.8 18.5 14.8 19 14.5 19C14.2 19 13.7 18.5 13.4 18C13.1 17.4 13.1 17 13.4 17Z" fill="#205C70"/>
<path d="M6.5 8.3C7.1 7.7 9.3 6.1 11.5 4.6C13.7 3.2 15.7 2 16 2C16.3 2 18.7 3.5 21.3 5.3C23.9 7 25.9 8.6 25.8 8.8C25.6 8.9 23.3 7.8 15.5 3.8L10.5 6.5C7.8 8 6 8.8 6.5 8.3Z" fill="#51AAB6"/>
<path d="M14.1 10.8C12.7 9.1 12.5 8.3 13.3 7.8C14 7.4 15.3 7 16.2 7C17.2 7 18.2 7.4 18.5 8C18.8 8.6 18.3 9.9 17.5 11C16 13 16 13 14.1 10.8Z" fill="#51AAB6"/>
<path d="M8.2 16C6.6 12.9 6.5 12.4 7.9 11.2C9.2 10.2 9.7 10.3 11 11.6C12.1 12.8 12.2 13.3 11.2 13.6C10.6 13.8 10 15.2 10 16.8C10 19.5 10 19.5 8.2 16Z" fill="#51AAB6"/>
<path d="M19.8 12.6C19.7 11.8 20.2 11 20.9 10.7C21.6 10.5 23 10.8 24 11.4C25.6 12.3 25.7 12.7 24.6 14C23.8 14.8 23 16.4 22.7 17.5C22.3 19 22.2 18.8 22.1 16.8C22.1 15.2 21.6 14 21 14C20.4 14 19.9 13.4 19.8 12.6Z" fill="#51AAB6"/>
<path d="M14.2 17.9C13.2 16.4 13.2 15.9 14.2 15.6C14.9 15.3 15.8 15.1 16.2 15.1C16.7 15 17.2 15.3 17.4 15.8C17.6 16.2 17.3 17.3 16.7 18.2C15.6 19.7 15.4 19.7 14.2 17.9Z" fill="#51AAB6"/>
<path d="M11.5 11C11.2 11 11 10.8 11 10.5C11 10.2 11.2 10 11.5 10C11.8 10 12 10.2 12 10.5C12 10.8 11.8 11 11.5 11Z" fill="#152D41"/>
<path d="M7.5 9C7.2 9 7 8.8 7 8.5C7 8.2 7.2 8 7.5 8C7.8 8 8 8.2 8 8.5C8 8.8 7.8 9 7.5 9Z" fill="#205C70"/>
</svg>
